<svg xmlns="http://www.w3.org/2000/svg" viewBox="0 0 14 14" width="140" height="40">
    <!-- Main Red Ghost Silhouette Mask -->
    <path d="M 4 1 h 6 M 2 2 h 10 M 1 3 h 12 M 1 4 h 12 M 0 5 h 14 M 0 6 h 14 M 0 7 h 14 M 0 8 h 14 M 0 9 h 14 M 0 10 h 14 M 0 11 h 14 M 0 12 h 2 v 1 h -2 z M 3 12 h 2 v 1 h -2 z M 6 12 h 2 v 1 h -2 z M 9 12 h 2 v 1 h -2 z M 12 12 h 2 v 1 h -2 z" stroke="#ef4444" stroke-width="1"/>
    
    <!-- White Eye Sockets -->
    <path d="M 2 4 h 3 v 3 h -3 z M 8 4 h 3 v 3 h -3 z" fill="#ffffff"/>
    
    <!-- Deep Blue Pupils looking downwards toward the player launcher -->
    <path d="M 2 6 h 2 v 1 h -2 z M 8 6 h 2 v 1 h -2 z" fill="#2563eb"/>
</svg>



